Coordinates
version=1
nRows=13
nColumns=22
inDegrees=yes

Units are S.I. units (second, meters, Newtons, ...)
If the header above contains a line with 'inDegrees', this indicates whether rotational values are in degrees (yes) or radians (no).

endheader
time	pelvis_tilt	pelvis_list	pelvis_rotation	pelvis_tx	pelvis_ty	pelvis_tz	hip_flexion_r	hip_adduction_r	hip_rotation_r	knee_angle_r	ankle_angle_r	subtalar_angle_r	hip_flexion_l	hip_adduction_l	hip_rotation_l	knee_angle_l	ankle_angle_l	subtalar_angle_l	lumbar_extension	lumbar_bending	lumbar_rotation
      4.08000000	      6.07697563	     -1.98677706	    -88.37088108	      0.45729235	      1.06782441	      0.31514535	     -1.17292314	     -3.10068053	     11.09875974	    -47.78749886	     -7.17483456	     16.73645141	     10.71645009	      4.55871360	     -1.22061518	    -12.02851448	      2.84319200	      2.93046040	     -1.41259754	     -7.52904357	      0.87029395
      4.09000000	      6.22398425	     -2.10805324	    -88.71483610	      0.46006316	      1.06867192	      0.32171464	     -0.48381256	     -3.34922209	     11.12373577	    -48.91967212	     -7.83333726	     16.99140784	     10.14624301	      4.84113743	     -1.48044269	    -11.93585610	      3.08505844	      2.67646156	     -1.56230192	     -7.65373060	      0.53208712
      4.10000000	      6.35369355	     -2.22668046	    -89.00732312	      0.46283272	      1.06947500	      0.32813206	      0.19518551	     -3.58009107	     11.10598550	    -49.98097528	     -8.13941191	     17.04360970	      9.61360743	      5.12027234	     -1.66810485	    -11.88586064	      3.35784398	      2.38673072	     -1.70784060	     -7.75442469	      0.17203142
      4.11000000	      6.48164279	     -2.34231441	    -89.26551261	      0.46556990	      1.07023830	      0.33439078	      0.87082917	     -3.81914609	     11.04722187	    -50.97634441	     -8.11707890	     16.83150497	      9.11171742	      5.40650410	     -1.82763331	    -11.86448756	      3.60380702	      2.08654720	     -1.84845001	     -7.85288420	     -0.19291324
      4.12000000	      6.59278630	     -2.43952456	    -89.49603788	      0.46827729	      1.07094930	      0.34052864	      1.55825744	     -4.06106447	     10.93339436	    -51.89616749	     -7.86386316	     16.22044487	      8.63130239	      5.68400894	     -1.96017451	    -11.82711636	      3.84129369	      1.68890734	     -1.95877483	     -7.92886472	     -0.55442542
      4.13000000	      6.71575019	     -2.55007127	    -89.70660393	      0.47094957	      1.07162328	      0.34645894	      2.23511454	     -4.34145031	     10.78006608	    -52.75738210	     -7.35309442	     15.45353467	      8.16585413	      5.97783130	     -2.10135203	    -11.81816730	      4.06446256	      1.35455792	     -2.09308721	     -8.01492907	     -0.90229277
      4.14000000	      6.84275682	     -2.65453136	    -89.90707069	      0.47358863	      1.07224122	      0.35224600	      2.91939775	     -4.66345676	     10.57552721	    -53.55110285	     -6.66556731	     14.55818719	      7.70580180	      6.27880823	     -2.25567281	    -11.78368523	      4.27557595	      1.01948376	     -2.21785273	     -8.10130801	     -1.22249598
      4.15000000	      6.98183762	     -2.75804350	    -90.10559434	      0.47615883	      1.07280122	      0.35785288	      3.61209796	     -5.02862139	     10.33475008	    -54.28451842	     -5.86864374	     13.56945549	      7.25675871	      6.59312818	     -2.41433380	    -11.74273840	      4.46071498	      0.68077518	     -2.34377542	     -8.20167073	     -1.51399324
      4.16000000	      7.17204573	     -2.86751030	    -90.30299749	      0.47866075	      1.07330059	      0.36327809	      4.31241672	     -5.47668021	     10.07235549	    -54.97336244	     -5.01170096	     12.72875051	      6.80957020	      6.96011323	     -2.58984304	    -11.68787515	      4.60005459	      0.40930126	     -2.48280943	     -8.36292676	     -1.77836709
      4.17000000	      7.27449870	     -2.97244328	    -90.48691965	      0.48104768	      1.07374220	      0.36855667	      4.99682484	     -5.83681223	      9.76436699	    -55.56937441	     -4.12084113	     11.56525007	      6.38403274	      7.23007034	     -2.73330589	    -11.65327805	      4.82093896	      0.03417698	     -2.61786718	     -8.42827801	     -2.01378946
      4.18000000	      7.42717755	     -3.08106543	    -90.67263925	      0.48331567	      1.07413216	      0.37367442	      5.68083373	     -6.25041563	      9.47098027	    -56.11431814	     -3.23108328	     10.62237673	      5.95120800	      7.54887846	     -2.86337005	    -11.58766371	      4.99051766	     -0.25244793	     -2.76217949	     -8.56141624	     -2.22731402
      4.19000000	      7.56888865	     -3.19693090	    -90.83680321	      0.48548685	      1.07448518	      0.37866291	      6.34024635	     -6.64849750	      9.14721099	    -56.58166952	     -2.36035554	      9.70428842	      5.52166146	      7.84990767	     -2.99682303	    -11.52809253	      5.17320655	     -0.51745047	     -2.91622964	     -8.68943303	     -2.43337568
      4.20000000	      7.70136178	     -3.31589948	    -90.98293341	      0.48753906	      1.07479990	      0.38350962	      6.97753875	     -7.01438839	      8.82295204	    -56.97182483	     -1.50997408	      8.80871732	      5.09453334	      8.13472264	     -3.10898818	    -11.46576957	      5.35881444	     -0.75352726	     -3.07840857	     -8.81620055	     -2.63790304
